<svg preserveAspectRatio="none" overflow="visible" style="display: block;" width="8.04004" height="9.64844" viewBox="0 0 8.04004 9.64844" fill="none" xmlns="http://www.w3.org/2000/svg">
<path id="Subtract" d="M4.01953 0C6.2306 0 8.03988 1.82885 8.04004 4.08008C8.04004 5.54746 6.71348 7.51754 5.4873 8.72363C4.58274 9.6081 4.18075 9.64844 4.04004 9.64844H4.01953C3.0542 9.6274 0 6.31102 0 4.08008C0.000154275 1.82899 1.80865 0.000227861 4.01953 0ZM4.02051 2.14844C3.03176 2.14844 2.22949 2.94973 2.22949 3.93848C2.22949 4.92722 3.03176 5.72852 4.02051 5.72852C5.00908 5.7283 5.81055 4.92709 5.81055 3.93848C5.81054 2.94986 5.00907 2.14865 4.02051 2.14844Z" fill="white"/>
</svg>
