<svg preserveAspectRatio="none" width="100%" height="100%" overflow="visible" style="display: block;" viewBox="0 0 48 48" fill="none" xmlns="http://www.w3.org/2000/svg">
<g id="Frame">
<path id="Vector" d="M5.80873 26.0578C5.47281 26.0582 5.1465 25.9458 4.88206 25.7387C4.61762 25.5315 4.43036 25.2416 4.35029 24.9154C4.27022 24.5891 4.30197 24.2455 4.44045 23.9394C4.57893 23.6334 4.81613 23.3827 5.11404 23.2275L38.8261 5.65406C39.1789 5.47013 39.5903 5.43389 39.9699 5.55331C40.3494 5.67273 40.666 5.93804 40.8499 6.29086C41.0338 6.64368 41.0701 7.05512 40.9507 7.43466C40.8312 7.8142 40.5659 8.13076 40.2131 8.31469L6.5006 25.8877C6.28708 25.9993 6.0497 26.0577 5.80873 26.0578Z" fill="var(--fill-0, black)"/>
<path id="Vector_2" d="M28.5281 44.8922C28.2941 44.892 28.0633 44.837 27.8544 44.7317C27.6454 44.6263 27.4639 44.4736 27.3245 44.2856C27.1851 44.0976 27.0917 43.8796 27.0516 43.649C27.0115 43.4184 27.026 43.1816 27.0938 42.9576L38.0925 6.5667C38.2099 6.18858 38.4719 5.87219 38.8216 5.68652C39.1713 5.50084 39.5802 5.46094 39.9592 5.57551C40.3381 5.69008 40.6564 5.94983 40.8447 6.29813C41.0329 6.64642 41.0758 7.05502 40.9641 7.43482L29.9634 43.8281C29.8699 44.1359 29.6799 44.4056 29.4215 44.5972C29.163 44.7888 28.8498 44.8922 28.5281 44.8922ZM23.715 27.2081C23.6831 27.2081 23.6513 27.2081 23.6189 27.2048L5.73797 26.0742C5.54136 26.0619 5.34909 26.011 5.17216 25.9244C4.99522 25.8377 4.83708 25.7171 4.70676 25.5694C4.57644 25.4217 4.47649 25.2497 4.41262 25.0633C4.34876 24.877 4.32222 24.6799 4.33453 24.4833C4.34685 24.2866 4.39776 24.0944 4.48438 23.9174C4.57099 23.7405 4.69161 23.5824 4.83934 23.452C4.98707 23.3217 5.15903 23.2218 5.34539 23.1579C5.53174 23.094 5.72886 23.0675 5.92547 23.0798L23.8083 24.2109C24.1976 24.2348 24.5623 24.4094 24.8251 24.6976C25.0878 24.9859 25.228 25.3651 25.2158 25.755C25.2036 26.1449 25.04 26.5146 24.7597 26.7859C24.4795 27.0572 24.1046 27.2086 23.7145 27.2081H23.715Z" fill="var(--fill-0, black)"/>
<path id="Vector_3" d="M28.5066 44.8743C28.1772 44.8742 27.8571 44.7656 27.5956 44.5654C27.3341 44.3652 27.1457 44.0846 27.0596 43.7667L22.2656 26.1009C22.2141 25.9108 22.2004 25.7124 22.2255 25.517C22.2506 25.3216 22.314 25.1331 22.4119 24.9621C22.5099 24.7912 22.6405 24.6413 22.7964 24.5209C22.9523 24.4005 23.1304 24.3119 23.3206 24.2604C23.5107 24.2088 23.7091 24.1951 23.9045 24.2202C24.0999 24.2453 24.2884 24.3087 24.4593 24.4066C24.6302 24.5046 24.7802 24.6352 24.9006 24.7912C25.021 24.9471 25.1095 25.1252 25.1611 25.3153L29.9531 42.9811C30.0047 43.1712 30.0183 43.3696 29.9932 43.565C29.9681 43.7603 29.9047 43.9489 29.8067 44.1197C29.7087 44.2906 29.5781 44.4406 29.4221 44.5609C29.2662 44.6813 29.0881 44.7698 28.898 44.8214C28.7705 44.8564 28.6388 44.8742 28.5066 44.8743Z" fill="var(--fill-0, black)"/>
</g>
</svg>
